<mxfile host="app.diagrams.net" modified="2022-09-24T12:04:00.148Z" agent="5.0 (Windows NT 10.0; Win64; x64) AppleWebKit/537.36 (KHTML, like Gecko) Chrome/103.0.0.0 Safari/537.36" etag="Lq8kjklOA2kiDfoV0nHr" version="20.3.6" type="github">
  <diagram id="7I3PmB62gOnP2wsl79oG" name="第 1 页">
    <mxGraphModel dx="1065" dy="551" grid="1" gridSize="10" guides="1" tooltips="1" connect="1" arrows="1" fold="1" page="1" pageScale="1" pageWidth="827" pageHeight="1169" math="0" shadow="0">
      <root>
        <mxCell id="0" />
        <mxCell id="1" parent="0" />
        <mxCell id="hXLqSdmscfbS3h8DthIs-86" value="&lt;br&gt;&lt;br&gt;&lt;br&gt;HA" style="rounded=1;whiteSpace=wrap;html=1;strokeWidth=1;fontSize=11;fillColor=#e1d5e7;strokeColor=#9673a6;" vertex="1" parent="1">
          <mxGeometry x="613" y="690" width="155" height="70" as="geometry" />
        </mxCell>
        <mxCell id="hXLqSdmscfbS3h8DthIs-84" value="&lt;br&gt;&lt;br&gt;&lt;br&gt;SR" style="rounded=1;whiteSpace=wrap;html=1;strokeWidth=1;fontSize=11;fillColor=#e1d5e7;strokeColor=#9673a6;" vertex="1" parent="1">
          <mxGeometry x="440" y="690" width="155" height="70" as="geometry" />
        </mxCell>
        <mxCell id="hXLqSdmscfbS3h8DthIs-16" value="model embedding" style="rounded=0;whiteSpace=wrap;html=1;fillColor=#dae8fc;strokeColor=#6c8ebf;" vertex="1" parent="1">
          <mxGeometry x="90" y="880" width="120" height="20" as="geometry" />
        </mxCell>
        <mxCell id="hXLqSdmscfbS3h8DthIs-42" value="" style="edgeStyle=orthogonalEdgeStyle;rounded=0;orthogonalLoop=1;jettySize=auto;html=1;fontColor=#000000;" edge="1" parent="1" source="hXLqSdmscfbS3h8DthIs-17">
          <mxGeometry relative="1" as="geometry">
            <mxPoint x="390" y="890" as="targetPoint" />
          </mxGeometry>
        </mxCell>
        <mxCell id="hXLqSdmscfbS3h8DthIs-17" value="city embedding" style="rounded=0;whiteSpace=wrap;html=1;fillColor=#dae8fc;strokeColor=#6c8ebf;" vertex="1" parent="1">
          <mxGeometry x="240" y="880" width="120" height="20" as="geometry" />
        </mxCell>
        <mxCell id="hXLqSdmscfbS3h8DthIs-18" value="time embedding" style="rounded=0;whiteSpace=wrap;html=1;fillColor=#dae8fc;strokeColor=#6c8ebf;" vertex="1" parent="1">
          <mxGeometry x="621" y="880" width="120" height="20" as="geometry" />
        </mxCell>
        <mxCell id="hXLqSdmscfbS3h8DthIs-25" value="" style="edgeStyle=orthogonalEdgeStyle;rounded=0;orthogonalLoop=1;jettySize=auto;html=1;" edge="1" parent="1" source="hXLqSdmscfbS3h8DthIs-20" target="hXLqSdmscfbS3h8DthIs-16">
          <mxGeometry relative="1" as="geometry" />
        </mxCell>
        <mxCell id="hXLqSdmscfbS3h8DthIs-20" value="model features" style="rounded=0;whiteSpace=wrap;html=1;" vertex="1" parent="1">
          <mxGeometry x="90" y="930" width="120" height="20" as="geometry" />
        </mxCell>
        <mxCell id="hXLqSdmscfbS3h8DthIs-26" value="" style="edgeStyle=orthogonalEdgeStyle;rounded=0;orthogonalLoop=1;jettySize=auto;html=1;" edge="1" parent="1" source="hXLqSdmscfbS3h8DthIs-21" target="hXLqSdmscfbS3h8DthIs-17">
          <mxGeometry relative="1" as="geometry" />
        </mxCell>
        <mxCell id="hXLqSdmscfbS3h8DthIs-21" value="city features" style="rounded=0;whiteSpace=wrap;html=1;" vertex="1" parent="1">
          <mxGeometry x="240" y="930" width="120" height="20" as="geometry" />
        </mxCell>
        <mxCell id="hXLqSdmscfbS3h8DthIs-29" value="" style="edgeStyle=orthogonalEdgeStyle;rounded=0;orthogonalLoop=1;jettySize=auto;html=1;" edge="1" parent="1" source="hXLqSdmscfbS3h8DthIs-28" target="hXLqSdmscfbS3h8DthIs-18">
          <mxGeometry relative="1" as="geometry" />
        </mxCell>
        <mxCell id="hXLqSdmscfbS3h8DthIs-28" value="time features" style="rounded=0;whiteSpace=wrap;html=1;" vertex="1" parent="1">
          <mxGeometry x="621" y="930" width="120" height="20" as="geometry" />
        </mxCell>
        <mxCell id="hXLqSdmscfbS3h8DthIs-34" value="group time embedding" style="whiteSpace=wrap;html=1;fillColor=#dae8fc;strokeColor=#6c8ebf;" vertex="1" parent="1">
          <mxGeometry x="463" y="880" width="130" height="20" as="geometry" />
        </mxCell>
        <mxCell id="hXLqSdmscfbS3h8DthIs-36" value="" style="shape=image;html=1;verticalAlign=top;verticalLabelPosition=bottom;labelBackgroundColor=#ffffff;imageAspect=0;aspect=fixed;image=https://cdn0.iconfinder.com/data/icons/math-business-icon-set/93/1_1-128.png;imageBackground=default;" vertex="1" parent="1">
          <mxGeometry x="595" y="830" width="18" height="18" as="geometry" />
        </mxCell>
        <mxCell id="hXLqSdmscfbS3h8DthIs-81" value="" style="edgeStyle=orthogonalEdgeStyle;rounded=0;orthogonalLoop=1;jettySize=auto;html=1;fontSize=11;fontColor=#000000;" edge="1" parent="1" target="hXLqSdmscfbS3h8DthIs-34">
          <mxGeometry relative="1" as="geometry">
            <mxPoint x="430" y="890" as="sourcePoint" />
          </mxGeometry>
        </mxCell>
        <mxCell id="hXLqSdmscfbS3h8DthIs-38" value="&lt;font color=&quot;#000000&quot;&gt;FC&lt;br&gt;&lt;/font&gt;" style="rounded=1;whiteSpace=wrap;html=1;fillColor=#e1d5e7;strokeColor=#9673a6;" vertex="1" parent="1">
          <mxGeometry x="394" y="880" width="40" height="70" as="geometry" />
        </mxCell>
        <mxCell id="hXLqSdmscfbS3h8DthIs-40" value="" style="endArrow=classic;html=1;rounded=0;fontColor=#000000;exitX=0.436;exitY=0.009;exitDx=0;exitDy=0;exitPerimeter=0;entryX=0.5;entryY=0;entryDx=0;entryDy=0;" edge="1" parent="1" source="hXLqSdmscfbS3h8DthIs-16" target="hXLqSdmscfbS3h8DthIs-38">
          <mxGeometry width="50" height="50" relative="1" as="geometry">
            <mxPoint x="360" y="870" as="sourcePoint" />
            <mxPoint x="410" y="820" as="targetPoint" />
            <Array as="points">
              <mxPoint x="142" y="860" />
              <mxPoint x="414" y="860" />
            </Array>
          </mxGeometry>
        </mxCell>
        <mxCell id="hXLqSdmscfbS3h8DthIs-46" value="" style="endArrow=none;html=1;rounded=0;fontColor=#000000;exitX=0.5;exitY=0;exitDx=0;exitDy=0;" edge="1" parent="1" source="hXLqSdmscfbS3h8DthIs-34">
          <mxGeometry width="50" height="50" relative="1" as="geometry">
            <mxPoint x="543" y="890" as="sourcePoint" />
            <mxPoint x="593" y="840" as="targetPoint" />
          </mxGeometry>
        </mxCell>
        <mxCell id="hXLqSdmscfbS3h8DthIs-47" value="" style="endArrow=none;html=1;rounded=0;fontColor=#000000;exitX=0.5;exitY=0;exitDx=0;exitDy=0;" edge="1" parent="1" source="hXLqSdmscfbS3h8DthIs-18">
          <mxGeometry width="50" height="50" relative="1" as="geometry">
            <mxPoint x="538" y="890" as="sourcePoint" />
            <mxPoint x="613" y="840" as="targetPoint" />
          </mxGeometry>
        </mxCell>
        <mxCell id="hXLqSdmscfbS3h8DthIs-48" value="" style="shape=table;html=1;whiteSpace=wrap;startSize=0;container=1;collapsible=0;childLayout=tableLayout;fillColor=#e1d5e7;strokeColor=#9673a6;" vertex="1" parent="1">
          <mxGeometry x="652" y="706" width="89" height="30" as="geometry" />
        </mxCell>
        <mxCell id="hXLqSdmscfbS3h8DthIs-49" value="" style="shape=tableRow;horizontal=0;startSize=0;swimlaneHead=0;swimlaneBody=0;top=0;left=0;bottom=0;right=0;collapsible=0;dropTarget=0;fillColor=none;points=[[0,0.5],[1,0.5]];portConstraint=eastwest;fontColor=#000000;" vertex="1" parent="hXLqSdmscfbS3h8DthIs-48">
          <mxGeometry width="89" height="10" as="geometry" />
        </mxCell>
        <mxCell id="hXLqSdmscfbS3h8DthIs-50" value="" style="shape=partialRectangle;html=1;whiteSpace=wrap;connectable=0;fillColor=none;top=0;left=0;bottom=0;right=0;overflow=hidden;fontColor=#000000;" vertex="1" parent="hXLqSdmscfbS3h8DthIs-49">
          <mxGeometry width="30" height="10" as="geometry">
            <mxRectangle width="30" height="10" as="alternateBounds" />
          </mxGeometry>
        </mxCell>
        <mxCell id="hXLqSdmscfbS3h8DthIs-51" value="" style="shape=partialRectangle;html=1;whiteSpace=wrap;connectable=0;fillColor=none;top=0;left=0;bottom=0;right=0;overflow=hidden;fontColor=#000000;" vertex="1" parent="hXLqSdmscfbS3h8DthIs-49">
          <mxGeometry x="30" width="29" height="10" as="geometry">
            <mxRectangle width="29" height="10" as="alternateBounds" />
          </mxGeometry>
        </mxCell>
        <mxCell id="hXLqSdmscfbS3h8DthIs-52" value="" style="shape=partialRectangle;html=1;whiteSpace=wrap;connectable=0;fillColor=none;top=0;left=0;bottom=0;right=0;overflow=hidden;fontColor=#000000;" vertex="1" parent="hXLqSdmscfbS3h8DthIs-49">
          <mxGeometry x="59" width="30" height="10" as="geometry">
            <mxRectangle width="30" height="10" as="alternateBounds" />
          </mxGeometry>
        </mxCell>
        <mxCell id="hXLqSdmscfbS3h8DthIs-53" value="" style="shape=tableRow;horizontal=0;startSize=0;swimlaneHead=0;swimlaneBody=0;top=0;left=0;bottom=0;right=0;collapsible=0;dropTarget=0;fillColor=none;points=[[0,0.5],[1,0.5]];portConstraint=eastwest;fontColor=#000000;" vertex="1" parent="hXLqSdmscfbS3h8DthIs-48">
          <mxGeometry y="10" width="89" height="10" as="geometry" />
        </mxCell>
        <mxCell id="hXLqSdmscfbS3h8DthIs-54" value="" style="shape=partialRectangle;html=1;whiteSpace=wrap;connectable=0;fillColor=none;top=0;left=0;bottom=0;right=0;overflow=hidden;fontColor=#000000;" vertex="1" parent="hXLqSdmscfbS3h8DthIs-53">
          <mxGeometry width="30" height="10" as="geometry">
            <mxRectangle width="30" height="10" as="alternateBounds" />
          </mxGeometry>
        </mxCell>
        <mxCell id="hXLqSdmscfbS3h8DthIs-55" value="" style="shape=partialRectangle;html=1;whiteSpace=wrap;connectable=0;fillColor=none;top=0;left=0;bottom=0;right=0;overflow=hidden;fontColor=#000000;" vertex="1" parent="hXLqSdmscfbS3h8DthIs-53">
          <mxGeometry x="30" width="29" height="10" as="geometry">
            <mxRectangle width="29" height="10" as="alternateBounds" />
          </mxGeometry>
        </mxCell>
        <mxCell id="hXLqSdmscfbS3h8DthIs-56" value="" style="shape=partialRectangle;html=1;whiteSpace=wrap;connectable=0;fillColor=none;top=0;left=0;bottom=0;right=0;overflow=hidden;fontColor=#000000;" vertex="1" parent="hXLqSdmscfbS3h8DthIs-53">
          <mxGeometry x="59" width="30" height="10" as="geometry">
            <mxRectangle width="30" height="10" as="alternateBounds" />
          </mxGeometry>
        </mxCell>
        <mxCell id="hXLqSdmscfbS3h8DthIs-57" value="" style="shape=tableRow;horizontal=0;startSize=0;swimlaneHead=0;swimlaneBody=0;top=0;left=0;bottom=0;right=0;collapsible=0;dropTarget=0;fillColor=none;points=[[0,0.5],[1,0.5]];portConstraint=eastwest;fontColor=#000000;" vertex="1" parent="hXLqSdmscfbS3h8DthIs-48">
          <mxGeometry y="20" width="89" height="10" as="geometry" />
        </mxCell>
        <mxCell id="hXLqSdmscfbS3h8DthIs-58" value="" style="shape=partialRectangle;html=1;whiteSpace=wrap;connectable=0;fillColor=none;top=0;left=0;bottom=0;right=0;overflow=hidden;fontColor=#000000;" vertex="1" parent="hXLqSdmscfbS3h8DthIs-57">
          <mxGeometry width="30" height="10" as="geometry">
            <mxRectangle width="30" height="10" as="alternateBounds" />
          </mxGeometry>
        </mxCell>
        <mxCell id="hXLqSdmscfbS3h8DthIs-59" value="" style="shape=partialRectangle;html=1;whiteSpace=wrap;connectable=0;fillColor=none;top=0;left=0;bottom=0;right=0;overflow=hidden;fontColor=#000000;" vertex="1" parent="hXLqSdmscfbS3h8DthIs-57">
          <mxGeometry x="30" width="29" height="10" as="geometry">
            <mxRectangle width="29" height="10" as="alternateBounds" />
          </mxGeometry>
        </mxCell>
        <mxCell id="hXLqSdmscfbS3h8DthIs-60" value="" style="shape=partialRectangle;html=1;whiteSpace=wrap;connectable=0;fillColor=none;top=0;left=0;bottom=0;right=0;overflow=hidden;pointerEvents=1;fontColor=#000000;" vertex="1" parent="hXLqSdmscfbS3h8DthIs-57">
          <mxGeometry x="59" width="30" height="10" as="geometry">
            <mxRectangle width="30" height="10" as="alternateBounds" />
          </mxGeometry>
        </mxCell>
        <mxCell id="hXLqSdmscfbS3h8DthIs-75" value="" style="verticalLabelPosition=bottom;shadow=0;dashed=0;align=center;html=1;verticalAlign=top;strokeWidth=1;shape=mxgraph.mockup.graphics.lineChart;strokeColor=#9673a6;strokeColor2=#666666;strokeColor3=#008cff;strokeColor4=#dddddd;fillColor=#e1d5e7;" vertex="1" parent="1">
          <mxGeometry x="472.5" y="700" width="90" height="35" as="geometry" />
        </mxCell>
        <mxCell id="hXLqSdmscfbS3h8DthIs-80" value="" style="strokeWidth=1;html=1;shape=mxgraph.flowchart.annotation_2;align=left;labelPosition=right;pointerEvents=1;fontSize=11;fontColor=#000000;rotation=-90;" vertex="1" parent="1">
          <mxGeometry x="579" y="760" width="50" height="100" as="geometry" />
        </mxCell>
        <mxCell id="hXLqSdmscfbS3h8DthIs-90" value="time" style="endArrow=classic;html=1;rounded=0;fontSize=6;fontColor=#000000;labelBackgroundColor=#E1D5E7;" edge="1" parent="1">
          <mxGeometry width="50" height="50" relative="1" as="geometry">
            <mxPoint x="656.5" y="697" as="sourcePoint" />
            <mxPoint x="736.5" y="697" as="targetPoint" />
          </mxGeometry>
        </mxCell>
        <mxCell id="hXLqSdmscfbS3h8DthIs-91" value="space" style="endArrow=classic;html=1;rounded=0;fontSize=6;fontColor=#000000;labelBackgroundColor=#E1D5E7;" edge="1" parent="1">
          <mxGeometry width="50" height="50" relative="1" as="geometry">
            <mxPoint x="634" y="700" as="sourcePoint" />
            <mxPoint x="634" y="740" as="targetPoint" />
          </mxGeometry>
        </mxCell>
      </root>
    </mxGraphModel>
  </diagram>
</mxfile>
